<?xml version="1.0" encoding="UTF-8"?>
<svg width="163px" height="59px" viewBox="0 0 163 59" version="1.1" xmlns="http://www.w3.org/2000/svg" xmlns:xlink="http://www.w3.org/1999/xlink">
    <!-- Generator: Sketch 53.2 (72643) - https://sketchapp.com -->
    <title>Group 28</title>
    <desc>Created with Sketch.</desc>
    <g id="Page-1" stroke="none" stroke-width="1" fill="none" fill-rule="evenodd">
        <g id="01_HomePage_1" transform="translate(-738.000000, -1215.000000)">
            <g id="Group-2" transform="translate(737.000000, 1053.000000)">
                <g id="Group-4" transform="translate(0.000000, 0.632127)">
                    <g id="Group-28" transform="translate(1.362479, 161.633915)">
                        <g id="Group-5" transform="translate(13.637521, 11.000000)" fill="#FFFFFF">
                            <path d="M85.6069511,4.4564858 C84.5262208,4.4564858 84.0734825,5.4386359 84.0041113,6.14695233 L87.0418395,6.14695233 C87.0527928,5.5080071 86.7716569,4.4564858 85.6069511,4.4564858 L85.6069511,4.4564858 Z M85.7055312,3.26257099 C87.9509673,3.26257099 88.6884926,5.1100355 88.6884926,6.62889959 C88.6884926,6.9575 88.6592837,7.21307809 88.6300748,7.36642495 L84.0041113,7.36642495 C84.0442736,8.61875761 85.0081681,9.15912272 86.1327117,9.15912272 C86.9396083,9.15912272 87.5091823,9.02768256 88.0495474,8.84512677 L88.3051255,10.0390416 C87.7063425,10.2946197 86.8848415,10.4771755 85.8917381,10.4771755 C83.646302,10.4771755 82.3282492,9.10070487 82.3282492,6.98305781 C82.3282492,5.06622211 83.489304,3.26257099 85.7055312,3.26257099 L85.7055312,3.26257099 Z M131.662123,4.4564858 C130.585044,4.4564858 130.128655,5.4386359 130.059284,6.14695233 L133.097012,6.14695233 C133.111616,5.5080071 132.826829,4.4564858 131.662123,4.4564858 L131.662123,4.4564858 Z M63.7294663,8.24999493 C63.7294663,8.92910243 64.1676002,9.24309838 64.7225697,9.24309838 C65.4345373,9.24309838 65.931089,8.79036004 66.0990403,8.2901572 C66.1428537,8.16236815 66.1428537,8.03457911 66.1428537,7.90679006 L66.1428537,6.9575 C64.9087766,6.94289554 63.7294663,7.19847363 63.7294663,8.24999493 L63.7294663,8.24999493 Z M97.3416367,4.52950811 C96.1039085,4.52950811 95.6073567,5.73437627 95.6073567,6.88447769 C95.6073567,8.220786 96.2755109,9.22849391 97.3270322,9.22849391 C98.3201356,9.22849391 99.0174987,8.26094828 99.0174987,6.85891988 C99.0174987,5.77818966 98.5355515,4.52950811 97.3416367,4.52950811 L97.3416367,4.52950811 Z M73.0325089,4.62808824 C72.3241924,4.62808824 71.6706427,5.13924442 71.4844359,5.90232759 C71.458878,6.03376775 71.4296691,6.19076572 71.4296691,6.35871704 L71.4296691,7.48326065 C71.4296691,7.62200304 71.4442736,7.76439655 71.4698314,7.8921856 C71.6560383,8.60415314 72.2657746,9.11530933 73.0179044,9.11530933 C74.1132391,9.11530933 74.7813933,8.24999493 74.7813933,6.84431542 C74.7813933,5.62119168 74.1972148,4.62808824 73.0325089,4.62808824 L73.0325089,4.62808824 Z M134.699852,27.2102383 L125.750967,27.2102383 C125.783827,28.5392444 126.21831,29.5469523 127.050764,30.2443154 C127.802894,30.8723073 128.777742,31.1863032 129.975308,31.1863032 C131.304314,31.1863032 132.509182,30.9781897 133.593564,30.547358 L134.064558,32.6211917 C132.79762,33.1761613 131.293361,33.4463438 129.559081,33.4463438 C127.481596,33.4463438 125.845896,32.8366075 124.659284,31.6134838 C123.472671,30.39036 122.873888,28.7437069 122.873888,26.6844777 C122.873888,24.6544574 123.428858,22.9712931 124.531495,21.6240314 C125.696201,20.189143 127.262529,19.4735243 129.23048,19.4735243 C131.169223,19.4735243 132.629669,20.189143 133.622773,21.6240314 C134.411414,22.7704817 134.809385,24.1798124 134.809385,25.8556744 C134.809385,26.3850862 134.772874,26.8378245 134.699852,27.2102383 L134.699852,27.2102383 Z M122.38829,6.19076572 L122.38829,10.3347819 L120.643057,10.3347819 L120.643057,0.254051724 L122.38829,0.254051724 L122.38829,4.35790568 L122.417499,4.35790568 C122.629263,4.02930527 122.928655,3.76277383 123.282813,3.57656694 C123.636971,3.37940669 124.049547,3.26257099 124.487681,3.26257099 C125.666992,3.26257099 126.90472,4.04390974 126.90472,6.26013692 L126.90472,10.3347819 L125.155835,10.3347819 L125.155835,6.4426927 C125.155835,5.44958925 124.787073,4.68285497 123.823178,4.68285497 C123.14042,4.68285497 122.654821,5.13924442 122.457661,5.66500507 C122.402894,5.82200304 122.38829,6.00455882 122.38829,6.19076572 L122.38829,6.19076572 Z M121.935551,22.398068 C121.639811,22.3433012 121.325815,22.3250456 120.993564,22.3250456 C119.945693,22.3250456 119.138797,22.7193661 118.565572,23.5080071 C118.065369,24.2090213 117.817093,25.0779868 117.817093,26.1550659 L117.817093,33.2017191 L114.834132,33.2017191 L114.834132,24.0009077 C114.834132,22.4601369 114.808574,21.0508063 114.753807,19.7729158 L117.34975,19.7729158 L117.462935,22.3433012 L117.54691,22.3433012 C117.857255,21.4633824 118.350156,20.7514148 119.036566,20.222003 C119.697418,19.7400558 120.420338,19.5063844 121.194375,19.5063844 C121.468209,19.5063844 121.716485,19.5209888 121.935551,19.5575 L121.935551,22.398068 Z M114.275511,3.41956897 L115.257661,3.41956897 L115.257661,2.12707404 L116.973685,1.64512677 L116.973685,3.41956897 L118.634943,3.41956897 L118.634943,4.72666836 L116.973685,4.72666836 L116.973685,7.77900101 C116.973685,8.63336207 117.200055,9.05689148 117.868209,9.05689148 C118.182205,9.05689148 118.350156,9.04228702 118.550967,8.98752028 L118.580176,10.3092241 C118.320947,10.4041531 117.857255,10.4917799 117.31689,10.4917799 C116.663341,10.4917799 116.13758,10.2800152 115.808979,9.925857 C115.425612,9.5278854 115.257661,8.88528905 115.257661,7.97981237 L115.257661,4.72666836 L114.275511,4.72666836 L114.275511,3.41956897 Z M111.193969,31.463788 C109.956241,32.8256542 108.31689,33.5047617 106.275917,33.5047617 C104.304314,33.5047617 102.727032,32.851212 101.558675,31.5441126 C100.390318,30.2406643 99.8097908,28.5830578 99.8097908,26.5968509 C99.8097908,24.5193661 100.412225,22.8142951 101.617093,21.4889402 C102.825612,20.1599341 104.446708,19.5063844 106.491332,19.5063844 C108.466586,19.5063844 110.05117,20.1526318 111.245085,21.4670335 C112.384233,22.7303195 112.957458,24.3733215 112.957458,26.3814351 C112.957458,28.4479665 112.37328,30.1347819 111.193969,31.463788 L111.193969,31.463788 Z M97.2686144,10.4917799 C95.3262208,10.4917799 93.8037056,9.15912272 93.8037056,6.92829108 C93.8037056,4.65729716 95.2970119,3.26257099 97.3854501,3.26257099 C99.4446793,3.26257099 100.82115,4.71206389 100.82115,6.81510649 C100.82115,9.35628296 99.0321032,10.4917799 97.2686144,10.4917799 L97.2686144,10.4917799 Z M98.9517787,22.0110497 L95.6584724,22.0110497 L95.6584724,28.5392444 C95.6584724,30.1931998 96.246302,31.0147008 97.4037056,31.0147008 C97.9404196,31.0147008 98.3785535,30.9781897 98.7290606,30.8832606 L98.8166874,33.1433012 C98.2252066,33.3660193 97.4511701,33.4755527 96.4945778,33.4755527 C95.3225697,33.4755527 94.3951864,33.1250456 93.7343344,32.3984736 C93.0625292,31.6865061 92.7339288,30.4779868 92.7339288,28.7802181 L92.7339288,22.0110497 L90.7769308,22.0110497 L90.7769308,19.7729158 L92.7339288,19.7729158 L92.7339288,17.315715 L95.6584724,16.432145 L95.6584724,19.7729158 L98.9517787,19.7729158 L98.9517787,22.0110497 Z M88.4329146,31.8471552 C87.2134419,32.9351876 85.5266265,33.4755527 83.361515,33.4755527 C81.3534014,33.4755527 79.7469105,33.0885345 78.5347401,32.3181491 L79.2284521,29.8317394 C80.5355515,30.6021247 81.9704399,30.9927941 83.5331174,30.9927941 C84.6613121,30.9927941 85.5339288,30.7335649 86.1582695,30.2333621 C86.7826103,29.7295081 87.0966062,29.0504006 87.0966062,28.1923884 C87.0966062,27.4475609 86.837377,26.8122667 86.3262208,26.2938083 C85.8041113,25.779001 84.9570525,25.304356 83.7558354,24.8589199 C80.5026914,23.6467495 78.8706427,21.8686562 78.8706427,19.5282911 C78.8706427,17.9984736 79.4402168,16.746141 80.5903182,15.7712931 C81.7404196,14.7964452 83.266586,14.3071957 85.1651661,14.3071957 C86.8592837,14.3071957 88.2686144,14.6029361 89.393158,15.1871146 L88.6410281,17.6187576 C87.5895068,17.0528347 86.3992432,16.7643966 85.0702371,16.7643966 C84.0150647,16.7643966 83.1899125,17.030928 82.5984318,17.5347819 C82.1018801,17.9984736 81.8536042,18.5643966 81.8536042,19.2252485 C81.8536042,19.9554716 82.1383912,20.5652079 82.7079653,21.0508063 C83.2081681,21.4925913 84.1099937,21.9708874 85.4134419,22.4820436 C87.0199328,23.1209888 88.195592,23.8804209 88.9550241,24.7530375 C89.7071539,25.6183519 90.0868699,26.6917799 90.0868699,27.9769726 C90.0868699,29.5652079 89.5319004,30.8540517 88.4329146,31.8471552 L88.4329146,31.8471552 Z M73.415876,10.4917799 C72.5213527,10.4917799 71.7254095,10.1522262 71.2288578,9.30151623 L71.2032999,9.30151623 L71.1156732,10.3347819 L69.626018,10.3347819 C69.6552269,9.86743915 69.6844359,9.10070487 69.6844359,8.38873732 L69.6844359,0.254051724 L71.4296691,0.254051724 L71.4296691,4.37251014 L71.458878,4.37251014 C71.8824075,3.70435598 72.6345373,3.26257099 73.6714541,3.26257099 C75.3619206,3.26257099 76.5667888,4.67190162 76.5558354,6.7712931 C76.5558354,9.25770284 74.9785535,10.4917799 73.415876,10.4917799 L73.415876,10.4917799 Z M71.3676002,31.7449239 C70.2540099,32.916932 68.8775393,33.5047617 67.2308862,33.5047617 C65.4527928,33.5047617 64.1749024,32.8694675 63.3972148,31.5988793 L63.3972148,38.6455325 L60.4142533,38.6455325 L60.4142533,24.1871146 C60.4142533,22.7522262 60.374091,21.2808266 60.3047198,19.7729158 L62.9225697,19.7729158 L63.0941722,21.9015162 L63.1452878,21.9015162 C64.1493446,20.3059787 65.6536042,19.5063844 67.6763223,19.5063844 C69.2609064,19.5063844 70.5826103,20.127074 71.6414338,21.3830578 C72.7039085,22.6317394 73.2333202,24.2856947 73.2333202,26.3230172 C73.2333202,28.6159178 72.6126306,30.4122667 71.3676002,31.7449239 L71.3676002,31.7449239 Z M57.9753081,10.3347819 L59.7205413,10.3347819 L59.7205413,0.254051724 L57.9753081,0.254051724 L57.9753081,10.3347819 Z M56.6170931,31.7449239 C55.5071539,32.916932 54.1233811,33.5047617 52.4803791,33.5047617 C50.6949835,33.5047617 49.4207442,32.8694675 48.6467077,31.5988793 L48.6467077,38.6455325 L45.6637462,38.6455325 L45.6637462,24.1871146 C45.6637462,22.7522262 45.627235,21.2808266 45.5505616,19.7729158 L48.1757137,19.7729158 L48.3400139,21.9015162 L48.3911296,21.9015162 C49.3915352,20.3059787 50.899446,19.5063844 52.9258152,19.5063844 C54.5103993,19.5063844 55.8284521,20.127074 56.8945778,21.3830578 C57.9497503,22.6317394 58.4828131,24.2856947 58.4828131,26.3230172 C58.4828131,28.6159178 57.8621235,30.4122667 56.6170931,31.7449239 L56.6170931,31.7449239 Z M44.9335231,8.43255071 C44.9335231,6.70192191 46.4815961,5.80739858 49.037377,5.82200304 L49.037377,5.70516734 C49.037377,5.25242901 48.8548212,4.50029919 47.6316975,4.50029919 C46.95259,4.50029919 46.2406225,4.71206389 45.7732797,5.01145538 L45.4337259,3.87595842 C45.941231,3.56196247 46.8357543,3.26257099 47.931089,3.26257099 C50.1473162,3.26257099 50.7862614,4.67190162 50.7862614,6.19076572 L50.7862614,8.67352434 C50.7862614,9.30151623 50.8154703,9.91125254 50.899446,10.3347819 L49.322164,10.3347819 L49.194375,9.56804767 L49.1542127,9.56804767 C48.7416367,10.1084128 48.0187158,10.4917799 47.109588,10.4917799 C45.7148618,10.4917799 44.9335231,9.48407201 44.9335231,8.43255071 L44.9335231,8.43255071 Z M41.3371742,10.3347819 L39.6211498,10.3347819 L37.0507645,3.41956897 L38.9383912,3.41956897 L40.0592837,6.92829108 C40.2600951,7.53802738 40.4024886,8.09299696 40.5302776,8.65891988 L40.574091,8.65891988 C40.7018801,8.09299696 40.858878,7.55263185 41.0414338,6.92829108 L42.1477219,3.41956897 L43.9805819,3.41956897 L41.3371742,10.3347819 Z M40.6617178,33.2017191 L38.9237868,27.735999 L32.8702371,27.735999 L31.2126306,33.2017191 L28.1201356,33.2017191 L34.1116164,14.5810294 L37.8174987,14.5810294 L43.8418395,33.2017191 L40.6617178,33.2017191 Z M19.5801762,32.504356 C19.5801762,34.1911714 18.2037056,35.5566886 16.5205413,35.5566886 L3.40208291,35.5566886 C1.71526749,35.5566886 0.338796907,34.1911714 0.338796907,32.504356 L0.338796907,3.3575 C0.338796907,1.67068458 1.71526749,0.297865112 3.40208291,0.297865112 L16.5205413,0.297865112 C18.2037056,0.297865112 19.5801762,1.67068458 19.5801762,3.3575 L19.5801762,32.504356 Z M31.2126306,0.765207911 L33.4398111,0.765207911 L36.5505616,10.3347819 L34.6592837,10.3347819 L33.7976204,7.62200304 L30.7708456,7.62200304 L29.9456935,10.3347819 L28.1420423,10.3347819 L31.2126306,0.765207911 Z M53.488087,10.3347819 L55.2333202,10.3347819 L55.2333202,3.41956897 L53.488087,3.41956897 L53.488087,10.3347819 Z M54.3680058,0.538838742 C54.9631377,0.538838742 55.3319004,0.951414807 55.3465048,1.4881288 C55.3465048,1.99928499 54.9631377,2.42646552 54.3534014,2.42646552 C53.7692229,2.42646552 53.3895068,1.99928499 53.3895068,1.4881288 C53.3895068,0.951414807 53.7838273,0.538838742 54.3680058,0.538838742 L54.3680058,0.538838742 Z M64.6933608,4.50029919 C64.0142533,4.50029919 63.3022858,4.71206389 62.834943,5.01145538 L62.4953892,3.87595842 C63.0065454,3.56196247 63.9010687,3.26257099 64.9927523,3.26257099 C67.2089795,3.26257099 67.8479247,4.67190162 67.8479247,6.19076572 L67.8479247,8.67352434 C67.8479247,9.30151623 67.8771336,9.91125254 67.9611093,10.3347819 L66.3838273,10.3347819 L66.2560383,9.56804767 L66.215876,9.56804767 C65.8032999,10.1084128 65.0767279,10.4917799 64.1676002,10.4917799 C62.7765251,10.4917799 61.9951864,9.48407201 61.9951864,8.43255071 C61.9951864,6.70192191 63.5432594,5.80739858 66.0990403,5.82200304 L66.0990403,5.70516734 C66.0990403,5.25242901 65.9164845,4.50029919 64.6933608,4.50029919 L64.6933608,4.50029919 Z M78.5456935,10.3347819 L80.2909267,10.3347819 L80.2909267,0.254051724 L78.5456935,0.254051724 L78.5456935,10.3347819 Z M104.048736,3.41956897 L104.132712,4.4564858 L104.176525,4.4564858 C104.48687,3.91612069 105.239,3.26257099 106.389101,3.26257099 C107.59762,3.26257099 108.846302,4.04390974 108.846302,6.23092799 L108.846302,10.3347819 L107.101069,10.3347819 L107.101069,6.43173935 C107.101069,5.4386359 106.732306,4.68285497 105.779365,4.68285497 C105.082002,4.68285497 104.600055,5.17940669 104.413848,5.70516734 C104.359081,5.84756085 104.329872,6.05932556 104.329872,6.26013692 L104.329872,10.3347819 L102.584639,10.3347819 L102.584639,5.47879817 C102.584639,4.68285497 102.55543,4.01470081 102.526221,3.41956897 L104.048736,3.41956897 Z M131.764355,3.26257099 C134.00614,3.26257099 134.743665,5.1100355 134.743665,6.62889959 C134.743665,6.9575 134.718107,7.21307809 134.688898,7.36642495 L130.059284,7.36642495 C130.103097,8.61875761 131.066992,9.15912272 132.187884,9.15912272 C132.998432,9.15912272 133.568006,9.02768256 134.10472,8.84512677 L134.363949,10.0390416 C133.765166,10.2946197 132.940014,10.4771755 131.94691,10.4771755 C129.705126,10.4771755 128.383422,9.10070487 128.383422,6.98305781 C128.383422,5.06622211 129.548128,3.26257099 131.764355,3.26257099 L131.764355,3.26257099 Z M32.7570525,3.94532961 C32.5744967,3.36480223 32.4174987,2.70760142 32.2751052,2.15628296 L32.2458963,2.15628296 C32.1071539,2.70760142 31.9501559,3.37940669 31.793158,3.94532961 L31.0556326,6.3039503 L33.5091823,6.3039503 L32.7570525,3.94532961 Z M49.037377,8.2901572 C49.0811904,8.16236815 49.0811904,8.03457911 49.0811904,7.90679006 L49.0811904,6.9575 C47.8471133,6.94289554 46.667803,7.19847363 46.667803,8.24999493 C46.667803,8.92910243 47.109588,9.24309838 47.6609064,9.24309838 C48.372874,9.24309838 48.8657746,8.79036004 49.037377,8.2901572 L49.037377,8.2901572 Z M129.007762,21.5437069 C128.036566,21.5437069 127.244274,21.956283 126.634537,22.7631795 C126.137986,23.4021247 125.838594,24.1798124 125.750967,25.0743357 L131.965166,25.0743357 C131.979771,24.1944168 131.789913,23.4349848 131.38829,22.7887373 C130.86618,21.9635852 130.073888,21.5437069 129.007762,21.5437069 L129.007762,21.5437069 Z M35.8824075,17.0710903 L35.8276407,17.0710903 C35.6414338,17.8597312 35.3493446,19.0280882 34.9440707,20.5798124 L33.3959977,25.4394473 L38.394375,25.4394473 L36.8243953,20.5798124 C36.656444,20.0796095 36.3387969,18.9076014 35.8824075,17.0710903 L35.8824075,17.0710903 Z M66.7124277,21.8723073 C65.9749024,21.8723073 65.3103993,22.1132809 64.7116164,22.6025304 C64.1128334,23.095431 63.7185129,23.7343763 63.5359572,24.5303195 C63.4410281,24.9027333 63.3972148,25.2021247 63.3972148,25.4430984 L63.3972148,27.6775811 C63.3972148,28.6560801 63.6929551,29.4812323 64.2953892,30.1530375 C64.8941722,30.8211917 65.6718598,31.1570943 66.624801,31.1570943 C67.7529957,31.1570943 68.6292634,30.7262627 69.2536042,29.8609483 C69.8815961,28.9956339 70.195592,27.8528347 70.195592,26.4325507 C70.195592,25.1254513 69.8998517,24.0483722 69.3120221,23.2049645 C68.6621235,22.3250456 67.7968091,21.8723073 66.7124277,21.8723073 L66.7124277,21.8723073 Z M106.378148,21.6861004 C105.187884,21.6861004 104.275105,22.2155122 103.650764,23.2816379 C103.110399,24.1615568 102.847519,25.2313337 102.847519,26.5019219 C102.847519,27.735999 103.110399,28.7911714 103.650764,29.6710903 C104.28971,30.7335649 105.191535,31.2666278 106.359892,31.2666278 C107.491738,31.2666278 108.389913,30.7262627 109.032509,29.6345791 C109.587478,28.7437069 109.864963,27.6775811 109.864963,26.4471552 C109.864963,25.2203803 109.598432,24.1615568 109.065369,23.2816379 C108.430075,22.2155122 107.542854,21.6861004 106.378148,21.6861004 L106.378148,21.6861004 Z M51.9582695,21.8723073 C51.2207442,21.8723073 50.5562411,22.1132809 49.9574582,22.6025304 C49.3550241,23.095431 48.9680058,23.7343763 48.7817989,24.5303195 C48.690521,24.9027333 48.6467077,25.2021247 48.6467077,25.4430984 L48.6467077,27.6775811 C48.6467077,28.6560801 48.942448,29.4812323 49.541231,30.1530375 C50.1400139,30.8211917 50.9213527,31.1570943 51.8742939,31.1570943 C52.9951864,31.1570943 53.8787563,30.7262627 54.499446,29.8609483 C55.1274379,28.9956339 55.4377827,27.8528347 55.4377827,26.4325507 C55.4377827,25.1254513 55.1493446,24.0483722 54.5578638,23.2049645 C53.9079653,22.3250456 53.046302,21.8723073 51.9582695,21.8723073 L51.9582695,21.8723073 Z M2.20086587,29.4082099 L17.7181073,29.4082099 L17.7181073,6.45729716 L2.20086587,6.45729716 L2.20086587,29.4082099 Z M9.95948656,30.7627738 C9.08686993,30.7627738 8.3785535,31.4747414 8.3785535,32.3510091 C8.3785535,33.2199746 9.08686993,33.9282911 9.95948656,33.9282911 C10.8321032,33.9282911 11.5404196,33.2199746 11.5404196,32.3510091 C11.5404196,31.4747414 10.8321032,30.7627738 9.95948656,30.7627738 L9.95948656,30.7627738 Z M8.43697135,4.11693205 L11.4783507,4.11693205 C11.679162,4.11693205 11.8398111,3.95263185 11.8398111,3.76277383 C11.8398111,3.55831136 11.679162,3.39766227 11.4783507,3.39766227 L8.43697135,3.39766227 C8.24711334,3.39766227 8.07916202,3.55831136 8.07916202,3.76277383 C8.07916202,3.95263185 8.24711334,4.11693205 8.43697135,4.11693205 L8.43697135,4.11693205 Z" id="Fill-1"></path>
                        </g>
                        <path d="M6,0.5 C2.96243388,0.5 0.5,2.96243388 0.5,6 L0.5,52 C0.5,55.0375661 2.96243388,57.5 6,57.5 L156.637521,57.5 C159.675087,57.5 162.137521,55.0375661 162.137521,52 L162.137521,6 C162.137521,2.96243388 159.675087,0.5 156.637521,0.5 L6,0.5 Z" id="Rectangle-2" stroke="#FFFFFF" fill-rule="nonzero"></path>
                    </g>
                </g>
            </g>
        </g>
    </g>
</svg>