<?xml version="1.0" encoding="UTF-8"?>
<svg width="186px" height="59px" viewBox="0 0 186 59" version="1.1" xmlns="http://www.w3.org/2000/svg" xmlns:xlink="http://www.w3.org/1999/xlink">
    <!-- Generator: Sketch 53.2 (72643) - https://sketchapp.com -->
    <title>Group 33</title>
    <desc>Created with Sketch.</desc>
    <g id="Page-1" stroke="none" stroke-width="1" fill="none" fill-rule="evenodd">
        <g id="01_HomePage_1" transform="translate(-920.000000, -1215.000000)">
            <g id="Group-2" transform="translate(737.000000, 1053.000000)">
                <g id="Group-4" transform="translate(0.000000, 0.632127)">
                    <g id="Group-33" transform="translate(183.362479, 161.633915)">
                        <path d="M58.7131461,13.65075 C58.2931461,12.387 58.0831461,11.70075 58.0831461,11.5995 L58.0231461,11.5995 C58.0231461,11.697 57.8093961,12.3795 57.3743961,13.65075 L58.7131461,13.65075 Z M60.4118961,15.72825 L59.2381461,15.72825 C59.2381461,15.567 59.1218961,15.1095 58.9006461,14.352 L57.2018961,14.352 C56.9693961,15.09825 56.8568961,15.55575 56.8568961,15.72825 L55.7506461,15.72825 C55.7506461,15.6345 56.0356461,14.847 56.6056461,13.377 C57.1793961,11.90325 57.4681461,11.0895 57.4681461,10.9395 L58.8556461,10.9395 C58.8556461,11.082 59.1143961,11.88075 59.6318961,13.3395 C60.1531461,14.802 60.4118961,15.597 60.4118961,15.72825 L60.4118961,15.72825 Z" id="Fill-1" fill="#FFFFFF"></path>
                        <path d="M65.1548961,15.729 L64.2473961,15.729 C64.2473961,15.62775 63.9098961,15.099 63.2348961,14.13525 C62.5298961,13.1265 62.1248961,12.43275 62.0273961,12.05775 L61.9673961,12.05775 C62.0311461,12.59775 62.0611461,13.0815 62.0611461,13.5165 C62.0611461,14.12025 62.0798961,14.859 62.1098961,15.729 L61.2061461,15.729 C61.2436461,14.96775 61.2623961,14.13525 61.2623961,13.224 C61.2623961,12.3315 61.2436461,11.57025 61.2061461,10.94025 L62.2973961,10.94025 C62.2973961,11.0715 62.6011461,11.589 63.2086461,12.4965 C63.8536461,13.46025 64.2248961,14.11275 64.3186461,14.45775 L64.3748961,14.45775 C64.3148961,13.91025 64.2886461,13.419 64.2886461,12.98775 C64.2886461,12.32025 64.2698961,11.6415 64.2361461,10.94025 L65.1548961,10.94025 C65.1173961,11.54775 65.1023961,12.309 65.1023961,13.224 C65.1023961,14.1465 65.1173961,14.98275 65.1548961,15.729" id="Fill-3" fill="#FFFFFF"></path>
                        <path d="M69.4797711,13.328625 C69.4797711,12.859875 69.3410211,12.462375 69.0710211,12.139875 C68.7935211,11.817375 68.3735211,11.656125 67.8110211,11.656125 C67.7022711,11.656125 67.5597711,11.667375 67.3760211,11.689875 C67.3985211,12.177375 67.4135211,12.691125 67.4135211,13.223625 C67.4135211,13.808625 67.4247711,14.393625 67.4510211,14.967375 C67.6085211,15.001125 67.7697711,15.016125 67.9272711,15.016125 C68.4560211,15.016125 68.8460211,14.851125 69.0972711,14.524875 C69.3522711,14.198625 69.4797711,13.797375 69.4797711,13.328625 M70.4847711,13.171125 C70.4847711,13.868625 70.2597711,14.476125 69.8135211,14.993625 C69.3710211,15.514875 68.7447711,15.773625 67.9385211,15.773625 C67.5747711,15.773625 67.0760211,15.758625 66.4385211,15.728625 C66.4685211,14.989875 66.4872711,14.153625 66.4872711,13.223625 C66.4872711,12.331125 66.4685211,11.569875 66.4385211,10.939875 L67.0797711,10.939875 C67.1885211,10.939875 67.3460211,10.936125 67.5522711,10.928625 C67.7622711,10.921125 67.8972711,10.917375 67.9610211,10.917375 C68.8460211,10.917375 69.4872711,11.142375 69.8847711,11.581125 C70.2860211,12.023625 70.4847711,12.552375 70.4847711,13.171125" id="Fill-5" fill="#FFFFFF"></path>
                        <path d="M74.0206461,12.345375 C74.0206461,11.857875 73.7056461,11.614125 73.0793961,11.614125 C72.8506461,11.614125 72.6443961,11.632875 72.4681461,11.666625 C72.4943961,12.045375 72.5093961,12.540375 72.5093961,13.151625 C72.6443961,13.155375 72.7568961,13.159125 72.8506461,13.159125 C73.6306461,13.159125 74.0206461,12.889125 74.0206461,12.345375 M75.3968961,15.727875 L74.3093961,15.727875 C74.0243961,14.861625 73.8068961,14.325375 73.6531461,14.122875 C73.5031461,13.916625 73.2593961,13.819125 72.9181461,13.819125 C72.7793961,13.819125 72.6406461,13.819125 72.5131461,13.822875 C72.5131461,14.452875 72.5243961,15.086625 72.5431461,15.727875 L71.5231461,15.727875 C71.5531461,14.989125 71.5718961,14.152875 71.5718961,13.222875 C71.5718961,12.334125 71.5531461,11.569125 71.5231461,10.939125 L72.1568961,10.939125 C72.2318961,10.939125 72.3856461,10.939125 72.6218961,10.931625 C72.8506461,10.924125 73.0718961,10.920375 73.2706461,10.920375 C74.3956461,10.920375 74.9581461,11.302875 74.9581461,12.075375 C74.9581461,12.682875 74.6356461,13.110375 73.9943961,13.350375 L73.9943961,13.406625 C74.2418961,13.474125 74.4556461,13.669125 74.6431461,13.984125 C74.8306461,14.302875 75.0818961,14.884125 75.3968961,15.727875" id="Fill-7" fill="#FFFFFF"></path>
                        <path d="M79.6531461,13.354125 C79.6531461,12.840375 79.5256461,12.424125 79.2631461,12.105375 C78.9968961,11.790375 78.6743961,11.629125 78.2918961,11.629125 C77.9318961,11.629125 77.6281461,11.790375 77.3806461,12.109125 C77.1293961,12.431625 77.0018961,12.836625 77.0018961,13.327875 C77.0018961,13.837875 77.1331461,14.254125 77.3956461,14.572875 C77.6618961,14.891625 77.9881461,15.052875 78.3668961,15.052875 C78.7268961,15.052875 79.0306461,14.891625 79.2781461,14.569125 C79.5293961,14.246625 79.6531461,13.841625 79.6531461,13.354125 M80.6693961,13.245375 C80.6693961,13.999125 80.4406461,14.621625 79.9793961,15.120375 C79.5181461,15.615375 78.9481461,15.859125 78.2693961,15.859125 C77.6206461,15.859125 77.0768961,15.634125 76.6418961,15.180375 C76.2068961,14.726625 75.9856461,14.145375 75.9856461,13.444125 C75.9856461,12.694125 76.2181461,12.067875 76.6793961,11.572875 C77.1406461,11.077875 77.7106461,10.830375 78.3893961,10.830375 C79.0381461,10.830375 79.5781461,11.059125 80.0168961,11.512875 C80.4518961,11.962875 80.6693961,12.544125 80.6693961,13.245375" id="Fill-9" fill="#FFFFFF"></path>
                        <path d="M82.7476461,15.729 L81.7088961,15.729 C81.7388961,14.96775 81.7538961,14.13525 81.7538961,13.224 C81.7538961,12.3315 81.7388961,11.57025 81.7088961,10.94025 L82.7476461,10.94025 C82.7176461,11.559 82.6988961,12.32025 82.6988961,13.224 C82.6988961,14.15025 82.7176461,14.98275 82.7476461,15.729" id="Fill-11" fill="#FFFFFF"></path>
                        <path d="M87.0762711,13.328625 C87.0762711,12.859875 86.9375211,12.462375 86.6637711,12.139875 C86.3862711,11.817375 85.9700211,11.656125 85.4075211,11.656125 C85.2987711,11.656125 85.1562711,11.667375 84.9687711,11.689875 C84.9950211,12.177375 85.0062711,12.691125 85.0062711,13.223625 C85.0062711,13.808625 85.0212711,14.393625 85.0437711,14.967375 C85.2050211,15.001125 85.3625211,15.016125 85.5237711,15.016125 C86.0525211,15.016125 86.4387711,14.851125 86.6937711,14.524875 C86.9487711,14.198625 87.0762711,13.797375 87.0762711,13.328625 M88.0812711,13.171125 C88.0812711,13.868625 87.8562711,14.476125 87.4100211,14.993625 C86.9637711,15.514875 86.3375211,15.773625 85.5350211,15.773625 C85.1712711,15.773625 84.6687711,15.758625 84.0312711,15.728625 C84.0650211,14.989875 84.0800211,14.153625 84.0800211,13.223625 C84.0800211,12.331125 84.0650211,11.569875 84.0312711,10.939875 L84.6762711,10.939875 C84.7850211,10.939875 84.9425211,10.936125 85.1487711,10.928625 C85.3550211,10.921125 85.4937711,10.917375 85.5575211,10.917375 C86.4425211,10.917375 87.0837711,11.142375 87.4812711,11.581125 C87.8787711,12.023625 88.0812711,12.552375 88.0812711,13.171125" id="Fill-13" fill="#FFFFFF"></path>
                        <path d="M93.4520211,13.65075 C93.0320211,12.387 92.8220211,11.70075 92.8220211,11.5995 L92.7620211,11.5995 C92.7620211,11.697 92.5482711,12.3795 92.1132711,13.65075 L93.4520211,13.65075 Z M95.1507711,15.72825 L93.9732711,15.72825 C93.9732711,15.567 93.8607711,15.1095 93.6395211,14.352 L91.9407711,14.352 C91.7082711,15.09825 91.5957711,15.55575 91.5957711,15.72825 L90.4857711,15.72825 C90.4857711,15.6345 90.7745211,14.847 91.3445211,13.377 C91.9182711,11.90325 92.2032711,11.0895 92.2032711,10.9395 L93.5945211,10.9395 C93.5945211,11.082 93.8532711,11.88075 94.3707711,13.3395 C94.8920211,14.802 95.1507711,15.597 95.1507711,15.72825 L95.1507711,15.72825 Z" id="Fill-15" fill="#FFFFFF"></path>
                        <path d="M98.4908961,12.39825 C98.4908961,11.87325 98.1421461,11.61075 97.4483961,11.61075 C97.2721461,11.61075 97.0883961,11.6295 96.8933961,11.667 C96.9233961,12.12825 96.9346461,12.65325 96.9346461,13.23825 C96.9983961,13.24575 97.0658961,13.24575 97.1483961,13.24575 C98.0446461,13.24575 98.4908961,12.9645 98.4908961,12.39825 M99.4396461,12.19575 C99.4396461,12.78075 99.2221461,13.212 98.7871461,13.49325 C98.3521461,13.7745 97.8158961,13.91325 97.1821461,13.91325 C97.0696461,13.91325 96.9908961,13.9095 96.9383961,13.90575 C96.9383961,14.367 96.9533961,14.9745 96.9796461,15.72825 L95.9446461,15.72825 C95.9783961,15.0195 95.9933961,14.187 95.9933961,13.22325 C95.9933961,12.342 95.9783961,11.58075 95.9446461,10.9395 L96.5858961,10.9395 C96.6796461,10.9395 96.8521461,10.93575 97.1071461,10.92825 C97.3658961,10.92075 97.5908961,10.917 97.7783961,10.917 C98.2433961,10.917 98.6371461,11.02575 98.9558961,11.23575 C99.2783961,11.44575 99.4396461,11.76825 99.4396461,12.19575" id="Fill-17" fill="#FFFFFF"></path>
                        <path d="M102.900146,12.39825 C102.900146,11.87325 102.551396,11.61075 101.857646,11.61075 C101.685146,11.61075 101.497646,11.6295 101.306396,11.667 C101.332646,12.12825 101.347646,12.65325 101.347646,13.23825 C101.407646,13.24575 101.478896,13.24575 101.561396,13.24575 C102.453896,13.24575 102.900146,12.9645 102.900146,12.39825 M103.848896,12.19575 C103.848896,12.78075 103.631396,13.212 103.196396,13.49325 C102.761396,13.7745 102.228896,13.91325 101.595146,13.91325 C101.478896,13.91325 101.400146,13.9095 101.351396,13.90575 C101.351396,14.367 101.362646,14.9745 101.392646,15.72825 L100.353896,15.72825 C100.387646,15.0195 100.406396,14.187 100.406396,13.22325 C100.406396,12.342 100.387646,11.58075 100.353896,10.9395 L100.995146,10.9395 C101.088896,10.9395 101.261396,10.93575 101.520146,10.92825 C101.775146,10.92075 102.000146,10.917 102.191396,10.917 C102.656396,10.917 103.046396,11.02575 103.368896,11.23575 C103.691396,11.44575 103.848896,11.76825 103.848896,12.19575" id="Fill-19" fill="#FFFFFF"></path>
                        <path d="M110.045021,13.354125 C110.045021,12.840375 109.917521,12.424125 109.655021,12.105375 C109.388771,11.790375 109.066271,11.629125 108.683771,11.629125 C108.323771,11.629125 108.020021,11.790375 107.772521,12.109125 C107.517521,12.431625 107.393771,12.836625 107.393771,13.327875 C107.393771,13.837875 107.525021,14.254125 107.787521,14.572875 C108.053771,14.891625 108.376271,15.052875 108.758771,15.052875 C109.118771,15.052875 109.422521,14.891625 109.670021,14.569125 C109.921271,14.246625 110.045021,13.841625 110.045021,13.354125 M111.061271,13.245375 C111.061271,13.999125 110.832521,14.621625 110.371271,15.120375 C109.910021,15.615375 109.340021,15.859125 108.661271,15.859125 C108.012521,15.859125 107.468771,15.634125 107.033771,15.180375 C106.598771,14.726625 106.377521,14.145375 106.377521,13.444125 C106.377521,12.694125 106.610021,12.067875 107.071271,11.572875 C107.532521,11.077875 108.098771,10.830375 108.781271,10.830375 C109.430021,10.830375 109.970021,11.059125 110.408771,11.512875 C110.843771,11.962875 111.061271,12.544125 111.061271,13.245375" id="Fill-21" fill="#FFFFFF"></path>
                        <path d="M116.047271,15.729 L115.139771,15.729 C115.139771,15.62775 114.802271,15.099 114.123521,14.13525 C113.422271,13.1265 113.017271,12.43275 112.919771,12.05775 L112.859771,12.05775 C112.923521,12.59775 112.953521,13.0815 112.953521,13.5165 C112.953521,14.12025 112.972271,14.859 113.002271,15.729 L112.098521,15.729 C112.136021,14.96775 112.154771,14.13525 112.154771,13.224 C112.154771,12.3315 112.136021,11.57025 112.098521,10.94025 L113.189771,10.94025 C113.189771,11.0715 113.493521,11.589 114.097271,12.4965 C114.742271,13.46025 115.117271,14.11275 115.211021,14.45775 L115.267271,14.45775 C115.207271,13.91025 115.181021,13.419 115.181021,12.98775 C115.181021,12.32025 115.162271,11.6415 115.128521,10.94025 L116.047271,10.94025 C116.009771,11.54775 115.994771,12.309 115.994771,13.224 C115.994771,14.1465 116.009771,14.98275 116.047271,15.729" id="Fill-23" fill="#FFFFFF"></path>
                        <path d="M72.6620211,31.0695 C72.6620211,33.447 71.9607711,35.34075 70.5507711,36.75075 C68.9495211,38.427 66.8645211,39.27075 64.2995211,39.27075 C61.8432711,39.27075 59.7582711,38.41575 58.0407711,36.71325 C56.3195211,35.01075 55.4570211,32.89575 55.4570211,30.3795 C55.4570211,27.86325 56.3195211,25.752 58.0407711,24.04575 C59.7582711,22.34325 61.8432711,21.492 64.2995211,21.492 C65.5182711,21.492 66.6807711,21.72825 67.7907711,22.2045 C68.9007711,22.68075 69.7857711,23.3145 70.4532711,24.10575 L68.9570211,25.602 C67.8320211,24.2595 66.2795211,23.58075 64.2995211,23.58075 C62.5070211,23.58075 60.9620211,24.21075 59.6532711,25.4745 C58.3482711,26.73075 57.6920211,28.3695 57.6920211,30.3795 C57.6920211,32.39325 58.3482711,34.02825 59.6532711,35.28825 C60.9620211,36.54825 62.5070211,37.17825 64.2995211,37.17825 C66.1970211,37.17825 67.7832711,36.5445 69.0507711,35.27325 C69.8757711,34.44825 70.3520211,33.3045 70.4757711,31.83075 L64.2995211,31.83075 L64.2995211,29.787 L72.5457711,29.787 C72.6245211,30.2295 72.6620211,30.657 72.6620211,31.0695" id="Fill-25" fill="#FFFFFF"></path>
                        <path d="M76.8807711,36.119625 C77.6345211,36.888375 78.5232711,37.274625 79.5545211,37.274625 C80.5820211,37.274625 81.4782711,36.888375 82.2282711,36.119625 C82.9820211,35.350875 83.3607711,34.330875 83.3607711,33.067125 C83.3607711,31.799625 82.9820211,30.779625 82.2282711,30.010875 C81.4782711,29.242125 80.5820211,28.859625 79.5545211,28.859625 C78.5232711,28.859625 77.6345211,29.242125 76.8807711,30.010875 C76.1307711,30.779625 75.7520211,31.799625 75.7520211,33.067125 C75.7520211,34.330875 76.1307711,35.350875 76.8807711,36.119625 M75.2532711,28.634625 C76.3782711,27.453375 77.8107711,26.864625 79.5545211,26.864625 C81.2982711,26.864625 82.7307711,27.453375 83.8557711,28.634625 C84.9807711,29.812125 85.5432711,31.289625 85.5432711,33.067125 C85.5432711,34.840875 84.9807711,36.318375 83.8557711,37.495875 C82.7307711,38.680875 81.2982711,39.269625 79.5545211,39.269625 C77.8107711,39.269625 76.3782711,38.680875 75.2532711,37.495875 C74.1320211,36.318375 73.5657711,34.840875 73.5657711,33.067125 C73.5657711,31.289625 74.1320211,29.812125 75.2532711,28.634625" id="Fill-27" fill="#FFFFFF"></path>
                        <path d="M89.5958961,36.119625 C90.3458961,36.888375 91.2383961,37.274625 92.2696461,37.274625 C93.2971461,37.274625 94.1896461,36.888375 94.9433961,36.119625 C95.6933961,35.350875 96.0721461,34.330875 96.0721461,33.067125 C96.0721461,31.799625 95.6933961,30.779625 94.9433961,30.010875 C94.1896461,29.242125 93.2971461,28.859625 92.2696461,28.859625 C91.2383961,28.859625 90.3458961,29.242125 89.5958961,30.010875 C88.8421461,30.779625 88.4671461,31.799625 88.4671461,33.067125 C88.4671461,34.330875 88.8421461,35.350875 89.5958961,36.119625 M87.9646461,28.634625 C89.0933961,27.453375 90.5258961,26.864625 92.2696461,26.864625 C94.0133961,26.864625 95.4458961,27.453375 96.5708961,28.634625 C97.6958961,29.812125 98.2583961,31.289625 98.2583961,33.067125 C98.2583961,34.840875 97.6958961,36.318375 96.5708961,37.495875 C95.4458961,38.680875 94.0133961,39.269625 92.2696461,39.269625 C90.5258961,39.269625 89.0933961,38.680875 87.9646461,37.495875 C86.8433961,36.318375 86.2808961,34.840875 86.2808961,33.067125 C86.2808961,31.289625 86.8433961,29.812125 87.9646461,28.634625" id="Fill-29" fill="#FFFFFF"></path>
                        <path d="M104.888771,37.273125 C105.916271,37.273125 106.793771,36.890625 107.513771,36.129375 C108.237521,35.368125 108.593771,34.348125 108.593771,33.065625 C108.593771,31.783125 108.237521,30.759375 107.513771,30.001875 C106.793771,29.236875 105.916271,28.858125 104.888771,28.858125 C103.872521,28.858125 103.002521,29.240625 102.275021,30.009375 C101.543771,30.781875 101.180021,31.798125 101.180021,33.065625 C101.180021,34.333125 101.543771,35.349375 102.275021,36.118125 C103.002521,36.886875 103.872521,37.273125 104.888771,37.273125 M104.720021,44.398125 C103.343771,44.398125 102.218771,44.056875 101.348771,43.366875 C100.475021,42.676875 99.8487711,41.885625 99.4700211,41.000625 L101.465021,40.168125 C101.686271,40.801875 102.095021,41.334375 102.691271,41.761875 C103.283771,42.193125 103.962521,42.403125 104.720021,42.403125 C105.923771,42.403125 106.872521,42.043125 107.562521,41.323125 C108.248771,40.603125 108.593771,39.624375 108.593771,38.390625 L108.593771,37.273125 L108.500021,37.273125 C108.117521,37.839375 107.581271,38.315625 106.883771,38.698125 C106.186271,39.076875 105.402521,39.268125 104.528771,39.268125 C103.025021,39.268125 101.727521,38.671875 100.632521,37.486875 C99.5412711,36.294375 98.9937711,34.824375 98.9937711,33.065625 C98.9937711,31.306875 99.5412711,29.833125 100.632521,28.644375 C101.727521,27.455625 103.025021,26.863125 104.528771,26.863125 C105.402521,26.863125 106.186271,27.054375 106.883771,27.433125 C107.581271,27.815625 108.117521,28.288125 108.500021,28.858125 L108.593771,28.858125 L108.593771,27.241875 L110.686271,27.241875 L110.686271,38.293125 C110.686271,40.291875 110.108771,41.806875 108.950021,42.841875 C107.795021,43.880625 106.385021,44.398125 104.720021,44.398125" id="Fill-31" fill="#FFFFFF"></path>
                        <polygon id="Fill-33" fill="#FFFFFF" points="112.756271 38.8875 114.938771 38.8875 114.938771 21.87 112.756271 21.87"></polygon>
                        <path d="M125.301146,31.66275 C125.252396,30.999 124.944896,30.36525 124.386146,29.7615 C123.819896,29.1615 122.987396,28.85775 121.877396,28.85775 C121.071146,28.85775 120.369896,29.11275 119.773646,29.619 C119.181146,30.12525 118.772396,30.80775 118.551146,31.66275 L125.301146,31.66275 Z M122.162396,39.26775 C120.403646,39.26775 118.974896,38.68275 117.876146,37.509 C116.773646,36.33525 116.222396,34.85775 116.222396,33.06525 C116.222396,31.37025 116.758646,29.9115 117.827396,28.69275 C118.896146,27.474 120.261146,26.86275 121.926146,26.86275 C123.654896,26.86275 125.034896,27.42525 126.069896,28.55025 C127.108646,29.67525 127.629896,31.179 127.629896,33.06525 L127.603646,33.4665 L118.408646,33.4665 C118.472396,34.64025 118.862396,35.57025 119.586146,36.249 C120.306146,36.92775 121.149896,37.27275 122.113646,37.27275 C123.681146,37.27275 124.746146,36.60525 125.301146,35.274 L127.251146,36.084 C126.868646,36.98775 126.242396,37.7415 125.372396,38.35275 C124.498646,38.96025 123.429896,39.26775 122.162396,39.26775 L122.162396,39.26775 Z" id="Fill-35" fill="#FFFFFF"></path>
                        <path d="M136.232771,29.905125 L139.892771,29.905125 C140.811521,29.905125 141.546521,29.593875 142.097771,28.978875 C142.656521,28.360125 142.934021,27.677625 142.934021,26.935125 C142.934021,26.188875 142.656521,25.510125 142.097771,24.891375 C141.546521,24.272625 140.811521,23.965125 139.892771,23.965125 L136.232771,23.965125 L136.232771,29.905125 Z M136.232771,38.890125 L134.046521,38.890125 L134.046521,21.872625 L139.844021,21.872625 C141.287771,21.872625 142.532771,22.352625 143.586521,23.308875 C144.640271,24.268875 145.165271,25.476375 145.165271,26.935125 C145.165271,28.390125 144.640271,29.601375 143.586521,30.557625 C142.532771,31.517625 141.287771,31.997625 139.844021,31.997625 L136.232771,31.997625 L136.232771,38.890125 Z" id="Fill-36" fill="#FFFFFF"></path>
                        <polygon id="Fill-37" fill="#FFFFFF" points="146.592521 38.8875 148.778771 38.8875 148.778771 21.87 146.592521 21.87"></polygon>
                        <path d="M154.766771,37.273125 C155.666771,37.273125 156.488021,36.935625 157.226771,36.260625 C157.965521,35.589375 158.329271,34.794375 158.329271,33.875625 C157.714271,33.365625 156.788021,33.114375 155.550521,33.114375 C154.489271,33.114375 153.690521,33.343125 153.150521,33.800625 C152.614271,34.261875 152.344271,34.801875 152.344271,35.416875 C152.344271,35.986875 152.588021,36.436875 153.079271,36.770625 C153.570521,37.104375 154.133021,37.273125 154.766771,37.273125 M154.410521,39.268125 C153.173021,39.268125 152.141771,38.911875 151.309271,38.199375 C150.476771,37.486875 150.060521,36.545625 150.060521,35.368125 C150.060521,34.100625 150.551771,33.110625 151.534271,32.386875 C152.516771,31.666875 153.728021,31.306875 155.168021,31.306875 C156.454271,31.306875 157.504271,31.546875 158.329271,32.019375 L158.329271,31.689375 C158.329271,30.830625 158.036771,30.148125 157.451771,29.630625 C156.866771,29.116875 156.143021,28.858125 155.291771,28.858125 C154.658021,28.858125 154.080521,29.008125 153.566771,29.308125 C153.053021,29.611875 152.696771,30.024375 152.505521,30.545625 L150.510521,29.690625 C150.784271,28.993125 151.313021,28.348125 152.104271,27.751875 C152.895521,27.159375 153.941771,26.863125 155.243021,26.863125 C156.728021,26.863125 157.969271,27.298125 158.948021,28.168125 C159.930521,29.041875 160.421771,30.268125 160.421771,31.854375 L160.421771,38.889375 L158.329271,38.889375 L158.329271,37.273125 L158.235521,37.273125 C157.361771,38.600625 156.090521,39.268125 154.410521,39.268125" id="Fill-38" fill="#FFFFFF"></path>
                        <polygon id="Fill-39" fill="#FFFFFF" points="165.174521 44.019 162.917021 44.019 165.628271 38.154 160.828271 27.2415 163.205771 27.2415 166.670771 35.60775 166.719521 35.60775 170.094521 27.2415 172.468271 27.2415"></polygon>
                        <path d="M14.6798961,30.091875 C14.6798961,24.658125 14.6836461,19.224375 14.6761461,13.786875 C14.6761461,13.119375 14.8073961,12.511875 15.2798961,12.005625 C15.4636461,11.810625 15.5948961,11.758125 15.8198961,11.986875 C19.4761461,15.718125 23.1436461,19.441875 26.8073961,23.165625 C29.1811461,25.576875 31.5511461,27.988125 33.9361461,30.391875 C34.1648961,30.624375 34.1873961,30.748125 33.9436461,30.991875 C28.1123961,36.785625 22.2886461,42.586875 16.4798961,48.403125 C16.1273961,48.759375 15.8761461,48.721875 15.5386461,48.455625 C14.9161461,47.983125 14.6761461,47.341875 14.6761461,46.576875 C14.6798961,43.355625 14.6723961,40.138125 14.6723961,36.916875 C14.6686461,34.644375 14.6723961,32.364375 14.6723961,30.091875 L14.6798961,30.091875 Z" id="Fill-40" fill="#FFFFFF"></path>
                        <path d="M16.7708961,11.3875444 C17.2133961,11.383875 17.5283961,11.511375 17.8283961,11.680125 C25.2721461,15.850125 32.7158961,20.023875 40.1596461,24.186375 C40.5046461,24.377625 40.4971461,24.486375 40.2346461,24.745125 C38.5658961,26.383875 36.9158961,28.033875 35.2696461,29.683875 C35.0896461,29.863875 34.9771461,29.968875 34.7408961,29.725125 C28.8196461,23.683875 22.8908961,17.653875 16.9621461,11.620125 C16.9096461,11.571375 16.8683961,11.511375 16.7708961,11.3875444" id="Fill-41" fill="#FFFFFF"></path>
                        <path d="M18.4336461,48.26325 C23.8373961,42.80325 29.2448961,37.347 34.6336461,31.872 C34.9673961,31.5345 35.1248961,31.5795 35.4248961,31.89075 C36.7936461,33.3195 38.1848961,34.72575 39.5798961,36.1245 C39.8236461,36.36825 39.8461461,36.4695 39.5123961,36.6495 C32.5748961,40.44825 25.6486461,44.25825 18.7148961,48.06075 C18.6023961,48.1245 18.4973961,48.22575 18.4336461,48.26325" id="Fill-42" fill="#FFFFFF"></path>
                        <path d="M49.2980211,30.241875 C49.2755211,30.856875 48.9867711,31.284375 48.5517711,31.606875 C48.2255211,31.846875 47.8692711,32.041875 47.5130211,32.236875 C45.4205211,33.395625 43.3130211,34.543125 41.2242711,35.713125 C40.9392711,35.870625 40.7742711,35.863125 40.5380211,35.623125 C39.0530211,34.081875 37.5455211,32.555625 36.0380211,31.036875 C35.8167711,30.819375 35.8092711,30.699375 36.0380211,30.474375 C37.7967711,28.741875 39.5442711,26.998125 41.2880211,25.243125 C41.4980211,25.036875 41.6442711,25.014375 41.8992711,25.160625 C43.9692711,26.334375 46.0542711,27.493125 48.1280211,28.655625 C48.7692711,29.015625 49.2717711,29.480625 49.2980211,30.241875" id="Fill-43" fill="#FFFFFF"></path>
                        <path d="M6,0.5 C2.96243388,0.5 0.5,2.96243388 0.5,6 L0.5,52 C0.5,55.0375661 2.96243388,57.5 6,57.5 L179.637521,57.5 C182.675087,57.5 185.137521,55.0375661 185.137521,52 L185.137521,6 C185.137521,2.96243388 182.675087,0.5 179.637521,0.5 L6,0.5 Z" id="Rectangle-2" stroke="#FFFFFF" fill-rule="nonzero"></path>
                    </g>
                </g>
            </g>
        </g>
    </g>
</svg>